<svg width="127" height="53" viewBox="0 0 127 53" fill="none" xmlns="http://www.w3.org/2000/svg">
<g clip-path="url(#clip0_15_69)">
<mask id="mask0_15_69" style="mask-type:luminance" maskUnits="userSpaceOnUse" x="0" y="0" width="127" height="53">
<path d="M126.32 0H0V52.939H126.32V0Z" fill="white"/>
</mask>
<g mask="url(#mask0_15_69)">
<path d="M123.613 52.222C123.613 52.222 122.748 51.263 121.313 49.715C120.28 48.6637 119.682 47.2619 119.637 45.789V0.0720005H102.337V36.636C102.124 40.1 98.737 40.978 96.873 40.917C94.19 40.836 92.629 39.317 92.629 36.741V0.0720005H75.778C75.778 0.0720005 68.743 0.0830005 63.9 0.0830005C54.676 0.0830005 45.973 1.502 43.027 9.183L41.29 2.383C41.0382 1.70527 40.5852 1.12071 39.9919 0.707658C39.3985 0.294609 38.693 0.0728136 37.97 0.0720005H7.853C7.414 0.0720005 7.253 0.214001 7.474 0.522001C7.474 0.522001 8.291 1.302 9.779 3.005C10.3853 3.77004 10.8128 4.66103 11.0301 5.6127C11.2475 6.56437 11.2491 7.5526 11.035 8.505L0 52.657H16.059L18.367 42.964H33.867L36.28 52.657H57.425C66.104 52.657 73.163 51.773 76.642 46.357C79.242 51.3 84.847 53.618 94.733 52.766C98.175 52.472 101.544 50.866 102.989 48.296L103.673 50.425C103.953 51.1005 104.43 51.6757 105.043 52.0747C105.655 52.4738 106.374 52.6782 107.105 52.661H123.255C123.694 52.661 123.836 52.53 123.613 52.222ZM20.779 33.383L26.124 11.793L31.49 33.383H20.779Z" fill="#760033"/>
<path d="M124.121 4.141C123.862 4.14646 123.605 4.10015 123.364 4.00479C123.124 3.90943 122.904 3.76695 122.72 3.5857C122.535 3.40446 122.388 3.18811 122.288 2.94937C122.188 2.71062 122.137 2.45429 122.137 2.19543C122.137 1.93657 122.19 1.6804 122.29 1.44197C122.391 1.20353 122.539 0.98764 122.724 0.806968C122.909 0.626296 123.129 0.484488 123.37 0.389873C123.611 0.295258 123.868 0.249743 124.127 0.256001C124.382 0.254123 124.636 0.303184 124.872 0.400314C125.108 0.497444 125.323 0.640696 125.503 0.821695C125.683 1.00269 125.826 1.21781 125.922 1.45447C126.018 1.69112 126.066 1.94457 126.063 2.2C126.065 2.45539 126.016 2.70864 125.919 2.94495C125.823 3.18125 125.679 3.39586 125.499 3.57622C125.318 3.75658 125.103 3.89907 124.866 3.99536C124.63 4.09165 124.376 4.1398 124.121 4.137M124.116 9.31421e-07C123.827 -0.00200526 123.54 0.0535814 123.273 0.163519C123.005 0.273456 122.762 0.435543 122.558 0.640326C122.354 0.845109 122.193 1.08849 122.084 1.35627C121.975 1.62405 121.92 1.91087 121.923 2.2C121.921 2.78348 122.152 3.34369 122.563 3.75739C122.975 4.1711 123.534 4.40441 124.117 4.406C124.7 4.40759 125.261 4.17733 125.674 3.76588C126.088 3.35442 126.321 2.79548 126.323 2.212C126.328 1.92133 126.274 1.63266 126.165 1.36307C126.057 1.09347 125.895 0.848417 125.69 0.642388C125.485 0.436359 125.24 0.273536 124.971 0.163544C124.702 0.0535513 124.414 -0.00137853 124.123 0.00200093M123.314 0.957001H124.092C124.357 0.920373 124.627 0.983049 124.849 1.133C124.937 1.20567 125.007 1.29755 125.054 1.40158C125.101 1.50561 125.123 1.61899 125.119 1.733C125.125 1.88227 125.082 2.0294 124.995 2.15085C124.908 2.27231 124.782 2.36109 124.639 2.403L125.181 3.395H124.659L124.175 2.495H123.767V3.395H123.314V0.957001ZM123.767 1.351V2.115H123.926C124.082 2.115 124.14 2.115 124.226 2.108C124.28 2.1148 124.334 2.11014 124.386 2.09432C124.437 2.0785 124.485 2.05188 124.526 2.01623C124.566 1.98058 124.599 1.93671 124.621 1.88754C124.643 1.83837 124.655 1.78501 124.655 1.731C124.658 1.66345 124.642 1.59638 124.608 1.53808C124.573 1.47979 124.523 1.43282 124.462 1.403C124.306 1.35013 124.141 1.33238 123.978 1.351H123.767Z" fill="#760033"/>
<path d="M42.6 11.248C42.505 11.721 42.39 12.359 42.322 12.808L39.308 10.008C39.2386 9.95496 39.1932 9.87653 39.1817 9.78999C39.1701 9.70344 39.1934 9.61585 39.2465 9.5465C39.2995 9.47715 39.378 9.4317 39.4645 9.42017C39.551 9.40864 39.6386 9.43196 39.708 9.485L42.6 11.248Z" fill="#FFBC20"/>
<path d="M42.179 15.368C42.179 16.016 42.207 16.891 42.279 17.553L36.445 13.753C36.3738 13.7109 36.3215 13.6431 36.299 13.5635C36.2765 13.4839 36.2854 13.3988 36.324 13.3256C36.3625 13.2525 36.4278 13.1969 36.5062 13.1706C36.5845 13.1442 36.6701 13.149 36.745 13.184L42.179 15.368Z" fill="#FFBC20"/>
<path d="M43.527 21.9C43.0861 21.0072 42.7547 20.0643 42.54 19.092L34.54 17.287C34.4623 17.267 34.3799 17.2772 34.3094 17.3156C34.2389 17.354 34.1856 17.4176 34.1603 17.4937C34.1349 17.5699 34.1393 17.6528 34.1727 17.7258C34.206 17.7988 34.2658 17.8564 34.34 17.887L43.527 21.9Z" fill="#FFBC20"/>
<path d="M43.77 22.351C46.477 27.297 52.187 29.267 57.2 31.007C62.083 32.686 66.282 34.139 66.282 37.907C66.2822 38.4055 66.1743 38.8982 65.9657 39.351C65.7572 39.8038 65.453 40.2061 65.074 40.53C63.526 41.939 60.699 42.623 57.59 42.33C56.3416 42.1601 55.1271 41.7975 53.99 41.255L47.511 49.289C47.4578 49.354 47.3825 49.3972 47.2996 49.4104C47.2166 49.4237 47.1316 49.406 47.0608 49.3607C46.99 49.3154 46.9383 49.2458 46.9155 49.1649C46.8927 49.084 46.9003 48.9976 46.937 48.922L51.377 39.993C51.388 39.9706 51.391 39.9451 51.3853 39.9207C51.3796 39.8964 51.3657 39.8748 51.3459 39.8596C51.3261 39.8444 51.3016 39.8365 51.2767 39.8373C51.2517 39.8381 51.2278 39.8476 51.209 39.864L43.329 46.722C43.2661 46.7762 43.1854 46.8054 43.1024 46.8037C43.0193 46.8021 42.9398 46.7699 42.879 46.7133C42.8183 46.6566 42.7806 46.5795 42.7732 46.4968C42.7658 46.4141 42.7893 46.3315 42.839 46.265L48.947 38.151C48.9636 38.133 48.973 38.1096 48.9735 38.0851C48.974 38.0606 48.9655 38.0368 48.9496 38.0182C48.9337 37.9996 48.9115 37.9875 48.8872 37.9841C48.863 37.9808 48.8384 37.9864 48.818 38L39.691 43.55C39.6215 43.5931 39.5385 43.6087 39.4581 43.5937C39.3777 43.5788 39.3058 43.5343 39.2565 43.4691C39.2072 43.4039 39.184 43.3226 39.1915 43.2412C39.199 43.1598 39.2366 43.0841 39.297 43.029L46.92 35.954C46.9373 35.9394 46.9486 35.919 46.952 35.8967C46.9553 35.8743 46.9504 35.8515 46.9381 35.8326C46.9259 35.8136 46.9071 35.7997 46.8854 35.7935C46.8637 35.7873 46.8404 35.7893 46.82 35.799L36.737 39.849C36.6623 39.8813 36.5781 39.8842 36.5013 39.8572C36.4246 39.8301 36.3608 39.775 36.3229 39.703C36.285 39.6309 36.2757 39.5472 36.2968 39.4686C36.318 39.39 36.3681 39.3223 36.437 39.279L45.316 33.5C45.3345 33.4882 45.3482 33.4702 45.3548 33.4493C45.3613 33.4284 45.3602 33.4058 45.3517 33.3856C45.3432 33.3654 45.3279 33.3488 45.3083 33.3388C45.2888 33.3288 45.2664 33.3261 45.245 33.331L34.536 35.743C34.4583 35.763 34.3759 35.7528 34.3054 35.7144C34.2349 35.676 34.1816 35.6124 34.1563 35.5363C34.1309 35.4601 34.1353 35.3772 34.1687 35.3042C34.202 35.2312 34.2618 35.1736 34.336 35.143L44.248 30.814C44.267 30.8061 44.2825 30.7916 44.2917 30.7733C44.3009 30.7549 44.3033 30.7338 44.2983 30.7139C44.2934 30.694 44.2814 30.6764 44.2647 30.6645C44.2479 30.6526 44.2275 30.6471 44.207 30.649L33.187 31.355C33.108 31.3614 33.0296 31.3377 32.9673 31.2889C32.9049 31.24 32.8633 31.1694 32.8507 31.0912C32.8381 31.013 32.8554 30.9329 32.8992 30.8669C32.943 30.8009 33.0101 30.7538 33.087 30.735L43.681 28.019C43.7003 28.0135 43.7171 28.0015 43.7286 27.9851C43.74 27.9686 43.7455 27.9487 43.7439 27.9287C43.7424 27.9087 43.734 27.8898 43.7202 27.8753C43.7063 27.8608 43.6879 27.8515 43.668 27.849L32.679 26.825C32.6008 26.8187 32.5279 26.7832 32.4747 26.7256C32.4215 26.668 32.392 26.5924 32.392 26.514C32.392 26.4356 32.4215 26.36 32.4747 26.3024C32.5279 26.2448 32.6008 26.2093 32.679 26.203L43.7 25.176C43.7198 25.1747 43.7384 25.1664 43.7525 25.1524C43.7665 25.1385 43.7751 25.12 43.7765 25.1002C43.778 25.0805 43.7723 25.0609 43.7604 25.045C43.7486 25.0292 43.7314 25.0182 43.712 25.014L33.091 22.292C33.0141 22.2732 32.947 22.2261 32.9032 22.1601C32.8594 22.0941 32.8421 22.014 32.8547 21.9358C32.8673 21.8576 32.9089 21.787 32.9713 21.7381C33.0336 21.6892 33.1121 21.6656 33.191 21.672L43.77 22.351Z" fill="#FFBC20"/>
<path d="M77.661 44.548C77.661 44.548 78.024 43.662 78.213 43.036L80.646 46.27C80.696 46.3362 80.7197 46.4185 80.7125 46.5012C80.7053 46.5838 80.6677 46.6608 80.607 46.7173C80.5463 46.7738 80.4667 46.8058 80.3838 46.807C80.3008 46.8083 80.2204 46.7787 80.158 46.724L77.661 44.548Z" fill="#FFBC20"/>
<path d="M78.781 40.5C78.781 40.5 78.981 39.035 79.019 38.231L84.183 43.022C84.2425 43.0772 84.2795 43.1526 84.2866 43.2335C84.2938 43.3144 84.2707 43.3951 84.2217 43.4599C84.1728 43.5248 84.1016 43.5692 84.0219 43.5845C83.9421 43.5999 83.8595 43.5851 83.79 43.543L78.781 40.5Z" fill="#FFBC20"/>
<path d="M79.075 36.766C79.0884 35.8313 79.0275 34.8971 78.893 33.972L87.026 39.272C87.0948 39.3155 87.1448 39.3833 87.1658 39.4619C87.1869 39.5406 87.1777 39.6243 87.1398 39.6964C87.102 39.7685 87.0385 39.8237 86.9618 39.8511C86.8851 39.8784 86.8009 39.8759 86.726 39.844L79.075 36.766Z" fill="#FFBC20"/>
<path d="M78.805 33.456C78.805 33.456 78.392 28.915 73.142 25.294C70.3078 23.5199 67.2755 22.0841 64.107 21.016C62.0562 20.3212 60.0727 19.4416 58.181 18.388C56.465 17.3 55.661 16.131 55.661 14.711C55.6456 14.2336 55.7292 13.7583 55.9065 13.3148C56.0837 12.8713 56.3508 12.4693 56.691 12.134C57.874 10.975 60.026 10.454 62.935 10.478C65.1445 10.5884 67.3195 11.0716 69.368 11.907L75.968 3.745C76.0211 3.67936 76.0966 3.63563 76.1799 3.62216C76.2633 3.60869 76.3487 3.62644 76.4198 3.67202C76.4908 3.71759 76.5426 3.78778 76.5652 3.86914C76.5877 3.95051 76.5795 4.03734 76.542 4.113L72.054 13.138C72.0464 13.1557 72.045 13.1755 72.05 13.1942C72.055 13.2128 72.0662 13.2292 72.0816 13.2408C72.0971 13.2523 72.116 13.2583 72.1353 13.2578C72.1546 13.2573 72.1732 13.2503 72.188 13.238L80.158 6.3C80.2203 6.24433 80.3012 6.21397 80.3847 6.21486C80.4683 6.21575 80.5485 6.24783 80.6096 6.30482C80.6707 6.3618 80.7084 6.43957 80.7151 6.52286C80.7218 6.60615 80.6972 6.68894 80.646 6.755L74.485 14.94C74.4735 14.9562 74.4679 14.9757 74.469 14.9955C74.4702 15.0153 74.4781 15.0341 74.4914 15.0488C74.5047 15.0635 74.5226 15.0732 74.5422 15.0763C74.5617 15.0795 74.5818 15.0758 74.599 15.066L83.766 9.492C83.8361 9.44504 83.9215 9.42662 84.0047 9.44049C84.0879 9.45436 84.1627 9.49948 84.2137 9.56663C84.2648 9.63377 84.2883 9.71789 84.2794 9.80178C84.2705 9.88567 84.23 9.96301 84.166 10.018L76.533 17.1C76.518 17.1136 76.5083 17.1321 76.5056 17.1522C76.5029 17.1723 76.5074 17.1927 76.5183 17.2098C76.5292 17.2269 76.5457 17.2396 76.5651 17.2457C76.5844 17.2518 76.6053 17.2508 76.624 17.243L86.724 13.184C86.7989 13.1521 86.8831 13.1496 86.9598 13.1769C87.0364 13.2043 87.1 13.2595 87.1378 13.3316C87.1757 13.4037 87.1849 13.4874 87.1638 13.5661C87.1427 13.6447 87.0928 13.7125 87.024 13.756L78.124 19.548C78.1076 19.5594 78.0955 19.576 78.0899 19.5952C78.0843 19.6144 78.0855 19.6349 78.0932 19.6533C78.101 19.6717 78.1148 19.6869 78.1324 19.6963C78.1501 19.7057 78.1704 19.7088 78.19 19.705L88.938 17.282C89.0157 17.262 89.0981 17.2722 89.1686 17.3106C89.2391 17.349 89.2924 17.4126 89.3178 17.4887C89.3431 17.5649 89.3387 17.6478 89.3053 17.7208C89.272 17.7938 89.2122 17.8514 89.138 17.882L79.23 22.213C79.2116 22.2214 79.1966 22.236 79.1878 22.2543C79.179 22.2725 79.1768 22.2933 79.1817 22.313C79.1866 22.3327 79.1981 22.3501 79.2144 22.3621C79.2307 22.3742 79.2508 22.3801 79.271 22.379L90.271 21.673C90.3496 21.6682 90.4271 21.6927 90.4886 21.7419C90.55 21.7911 90.591 21.8614 90.6035 21.9392C90.6159 22.0169 90.599 22.0965 90.5561 22.1624C90.5131 22.2284 90.4471 22.276 90.371 22.296L79.8 25.008C79.7807 25.0135 79.7639 25.0255 79.7524 25.0419C79.741 25.0584 79.7355 25.0783 79.7371 25.0983C79.7386 25.1183 79.747 25.1372 79.7608 25.1517C79.7747 25.1662 79.7931 25.1755 79.813 25.178L90.787 26.2C90.8646 26.2076 90.9366 26.2438 90.989 26.3016C91.0413 26.3593 91.0703 26.4345 91.0703 26.5125C91.0703 26.5905 91.0413 26.6657 90.989 26.7234C90.9366 26.7812 90.8646 26.8174 90.787 26.825L79.809 27.849C79.7891 27.8515 79.7707 27.8608 79.7568 27.8753C79.743 27.8898 79.7346 27.9087 79.7331 27.9287C79.7315 27.9487 79.737 27.9686 79.7484 27.9851C79.7599 28.0015 79.7767 28.0135 79.796 28.019L90.375 30.731C90.4511 30.751 90.5171 30.7986 90.5601 30.8646C90.603 30.9305 90.6199 31.0101 90.6075 31.0878C90.595 31.1656 90.554 31.2359 90.4926 31.2851C90.4311 31.3343 90.3536 31.3588 90.275 31.354L79.275 30.654C79.2545 30.6521 79.2341 30.6576 79.2173 30.6695C79.2006 30.6814 79.1886 30.699 79.1837 30.7189C79.1787 30.7388 79.1811 30.7599 79.1903 30.7783C79.1995 30.7966 79.215 30.8111 79.234 30.819L89.146 35.148C89.2202 35.1786 89.28 35.2362 89.3133 35.3092C89.3467 35.3822 89.3511 35.4651 89.3258 35.5413C89.3004 35.6174 89.2471 35.6811 89.1766 35.7194C89.1061 35.7578 89.0237 35.768 88.946 35.748L78.805 33.456Z" fill="#FFBC20"/>
</g>
</g>
<defs>
<clipPath id="clip0_15_69">
<rect width="126.32" height="52.939" fill="white"/>
</clipPath>
</defs>
</svg>
